<?xml version="1.0" standalone="no"?>
<!DOCTYPE svg PUBLIC "-//W3C//DTD SVG 20010904//EN"
 "http://www.w3.org/TR/2001/REC-SVG-20010904/DTD/svg10.dtd">
<svg version="1.0" xmlns="http://www.w3.org/2000/svg"
 width="71.000000pt" height="71.000000pt" viewBox="0 0 71.000000 71.000000"
 preserveAspectRatio="xMidYMid meet">
<metadata>
Created by potrace 1.14, written by Peter Selinger 2001-2017
</metadata>
<g transform="translate(0.000000,71.000000) scale(0.100000,-0.100000)"
fill="#000000" stroke="none">
<path d="M243 691 c-97 -36 -165 -97 -210 -191 -23 -47 -27 -68 -28 -145 0
-79 3 -97 29 -148 36 -75 96 -135 172 -172 52 -26 70 -30 149 -30 78 0 97 4
146 28 74 36 140 101 175 173 25 52 29 70 29 149 0 78 -4 97 -28 147 -35 72
-97 135 -169 171 -75 38 -190 46 -265 18z"/>
</g>
</svg>
